#N canvas 161 63 921 732 10;
#X obj 210 176 mtof;
#X obj 215 140 hsl 128 15 0 127 0 0 empty empty empty -2 -8 0 10 -262144
-1 -1 11600 1;
#X obj 118 -24 adc~;
#X obj 130 727 dac~;
#X obj 377 184 mtof;
#X obj 580 178 mtof;
#X obj 584 142 hsl 128 15 0 127 0 0 empty empty empty -2 -8 0 10 -262144
-1 -1 4000 1;
#X obj 580 228 phasor~ 200;
#X obj 115 486 *~;
#X obj 376 235 osc~ 440;
#X obj 207 227 osc~ 800;
#X obj 59 -173 tgl 15 0 empty empty empty 17 7 0 10 -262144 -1 -1 0
1;
#X msg 66 -150 \; pd dsp \$1;
#X obj 371 440 line;
#X msg 371 414 \$1 50;
#X obj 381 381 hsl 50 30 1 10 0 0 empty empty Volume -2 -8 0 10 -159808
-1 -1 300 1;
#X obj 194 488 *~;
#X obj 127 625 freeverb~;
#X obj 833 282 hsl 40 20 0 1 0 0 empty empty empty -2 -8 0 10 -262144
-1 -1 900 1;
#X msg 631 414 wet \$1;
#X msg 633 485 dry \$1;
#X msg 635 573 roomsize \$1;
#X obj 440 636 tgl 40 0 empty empty empty 17 7 0 10 -262144 -1 -1 0
1;
#X obj 380 139 hsl 128 15 0 127 0 0 empty empty empty -2 -8 0 10 -262144
-1 -1 10600 1;
#X obj 825 336 hsl 40 20 0 1 0 0 empty empty empty -2 -8 0 10 -262144
-1 -1 1100 1;
#X obj 793 398 hsl 40 20 0 1 0 0 empty empty empty -2 -8 0 10 -262144
-1 -1 1100 1;
#X floatatom 277 97 5 0 0 0 - - -;
#X floatatom 428 102 5 0 0 0 - - -;
#X floatatom 621 105 5 0 0 0 - - -;
#X text 533 94;
#X obj 337 -105 r;
#X msg 441 689 freeze \$1;
#X obj 555 -140 unpack f f f f f f;
#N canvas 692 116 362 318 arduino 0;
#X obj 76 6 comport 2 9600;
#X msg 76 -117 devices;
#X msg 150 -59 open 2;
#X obj 77 68 s;
#X connect 0 0 3 0;
#X connect 1 0 0 0;
#X connect 2 0 0 0;
#X restore 764 -156 pd arduino;
#X obj 799 11 r;
#X connect 0 0 10 0;
#X connect 1 0 0 0;
#X connect 2 0 8 0;
#X connect 2 0 16 0;
#X connect 4 0 9 0;
#X connect 5 0 7 0;
#X connect 6 0 5 0;
#X connect 7 0 8 1;
#X connect 8 0 17 0;
#X connect 9 0 8 1;
#X connect 10 0 8 1;
#X connect 11 0 12 0;
#X connect 13 0 8 1;
#X connect 13 0 16 1;
#X connect 14 0 13 0;
#X connect 15 0 14 0;
#X connect 16 0 17 1;
#X connect 17 0 3 0;
#X connect 17 1 3 1;
#X connect 18 0 19 0;
#X connect 19 0 17 0;
#X connect 20 0 17 0;
#X connect 21 0 17 0;
#X connect 22 0 31 0;
#X connect 23 0 4 0;
#X connect 24 0 20 0;
#X connect 25 0 21 0;
#X connect 26 0 1 0;
#X connect 27 0 23 0;
#X connect 28 0 6 0;
#X connect 30 0 32 0;
#X connect 31 0 17 0;
#X connect 32 0 26 0;
#X connect 32 1 27 0;
#X connect 32 2 28 0;
#X connect 32 3 18 0;
#X connect 32 4 24 0;
#X connect 32 5 25 0;
